<svg width="21" height="11" viewBox="0 0 21 11" fill="none" xmlns="http://www.w3.org/2000/svg">
<path d="M8.59164 6.41986C8.19967 7.68464 7.02062 8.60329 5.62701 8.60329C3.91315 8.60329 2.5238 7.21394 2.5238 5.50008C2.5238 3.78623 3.91315 2.39688 5.62701 2.39688C6.78065 2.39688 7.78726 3.02639 8.32206 3.96065L10.4477 7.24975C10.6459 6.70376 10.754 6.11455 10.754 5.50008C10.754 2.6685 8.45859 0.373047 5.62701 0.373047C2.79542 0.373047 0.499969 2.6685 0.499969 5.50008C0.499969 8.33167 2.79542 10.6271 5.62701 10.6271C7.38739 10.6271 8.94056 9.73991 9.86376 8.38825L8.59164 6.41986Z" fill="white"/>
<path d="M8.40247 4.07539C8.09913 3.60602 8.23372 2.9796 8.70309 2.67626C9.17247 2.37291 9.79888 2.5075 10.1022 2.97688L14.036 9.06366C14.3393 9.53304 14.2047 10.1594 13.7354 10.4628C13.266 10.7661 12.6396 10.6315 12.3362 10.1622L8.40247 4.07539Z" fill="white"/>
<path d="M18.4762 5.50008C18.4762 7.21394 17.0868 8.60329 15.373 8.60329C15.2606 8.60329 15.1495 8.59731 15.0402 8.58566C15.4371 9.22575 15.4187 10.0099 15.0538 10.6173C15.1594 10.6238 15.2658 10.6271 15.373 10.6271C18.2046 10.6271 20.5 8.33167 20.5 5.50008C20.5 2.6685 18.2046 0.373047 15.373 0.373047C13.6269 0.373047 12.0846 1.24595 11.1588 2.57918L12.4228 4.535C12.8286 3.29365 13.9961 2.39688 15.373 2.39688C17.0868 2.39688 18.4762 3.78623 18.4762 5.50008Z" fill="#4DCA74"/>
</svg>
